<mxfile host="app.diagrams.net" modified="2023-11-28T10:25:07.691Z" agent="Mozilla/5.0 (X11; Linux x86_64) AppleWebKit/537.36 (KHTML, like Gecko) Chrome/114.0.0.0 Safari/537.36" etag="Icf9Q5-olL5mBhDVJDoI" version="22.1.4" type="github">
  <diagram name="Page-1" id="OSyYVJDZ0RtoDVXYBKoF">
    <mxGraphModel dx="1602" dy="775" grid="1" gridSize="10" guides="1" tooltips="1" connect="1" arrows="1" fold="1" page="1" pageScale="1" pageWidth="850" pageHeight="1100" math="0" shadow="0">
      <root>
        <mxCell id="0" />
        <mxCell id="1" parent="0" />
        <mxCell id="BNw0BIAi_Vv0ncGTf3Xm-2" value="" style="ellipse;whiteSpace=wrap;html=1;aspect=fixed;" vertex="1" parent="1">
          <mxGeometry x="699" y="100" width="110" height="110" as="geometry" />
        </mxCell>
        <mxCell id="BNw0BIAi_Vv0ncGTf3Xm-7" value="" style="rounded=0;whiteSpace=wrap;html=1;" vertex="1" parent="1">
          <mxGeometry x="129" y="150" width="160" height="100" as="geometry" />
        </mxCell>
        <mxCell id="BNw0BIAi_Vv0ncGTf3Xm-8" value="&lt;b&gt;Webservice&lt;/b&gt;" style="sketch=0;html=1;dashed=0;whitespace=wrap;fillColor=#2875E2;strokeColor=#ffffff;points=[[0.005,0.63,0],[0.1,0.2,0],[0.9,0.2,0],[0.5,0,0],[0.995,0.63,0],[0.72,0.99,0],[0.5,1,0],[0.28,0.99,0]];verticalLabelPosition=bottom;align=center;verticalAlign=top;shape=mxgraph.kubernetes.icon;prIcon=api" vertex="1" parent="1">
          <mxGeometry x="174" y="160" width="50" height="48" as="geometry" />
        </mxCell>
        <mxCell id="BNw0BIAi_Vv0ncGTf3Xm-9" value="&lt;b&gt;S3 Storage&lt;/b&gt;" style="image;html=1;image=img/lib/clip_art/networking/Cloud_Rack_128x128.png" vertex="1" parent="1">
          <mxGeometry x="714" y="120" width="80" height="60" as="geometry" />
        </mxCell>
        <mxCell id="BNw0BIAi_Vv0ncGTf3Xm-10" value="" style="rounded=0;whiteSpace=wrap;html=1;" vertex="1" parent="1">
          <mxGeometry x="129" y="460.5" width="140" height="110" as="geometry" />
        </mxCell>
        <mxCell id="BNw0BIAi_Vv0ncGTf3Xm-11" value="&lt;b&gt;RabbitMQ&lt;/b&gt;" style="sketch=0;outlineConnect=0;fontColor=#232F3E;gradientColor=none;fillColor=#E7157B;strokeColor=none;dashed=0;verticalLabelPosition=bottom;verticalAlign=top;align=center;html=1;fontSize=12;fontStyle=0;aspect=fixed;pointerEvents=1;shape=mxgraph.aws4.mq_broker;" vertex="1" parent="1">
          <mxGeometry x="160" y="481" width="78" height="69" as="geometry" />
        </mxCell>
        <mxCell id="BNw0BIAi_Vv0ncGTf3Xm-12" value="" style="rounded=0;whiteSpace=wrap;html=1;" vertex="1" parent="1">
          <mxGeometry x="510" y="380" width="305" height="210" as="geometry" />
        </mxCell>
        <mxCell id="BNw0BIAi_Vv0ncGTf3Xm-13" value="&lt;b&gt;PostgreSQL&lt;/b&gt;" style="image;sketch=0;aspect=fixed;html=1;points=[];align=center;fontSize=12;image=img/lib/mscae/Azure_Database_for_PostgreSQL_servers.svg;" vertex="1" parent="1">
          <mxGeometry x="582" y="390" width="38" height="50" as="geometry" />
        </mxCell>
        <mxCell id="BNw0BIAi_Vv0ncGTf3Xm-15" value="&lt;b&gt;Guest Agent&lt;/b&gt;" style="sketch=0;aspect=fixed;pointerEvents=1;shadow=0;dashed=0;html=1;strokeColor=none;labelPosition=center;verticalLabelPosition=bottom;verticalAlign=top;align=center;fillColor=#00188D;shape=mxgraph.mscae.enterprise.d" vertex="1" parent="1">
          <mxGeometry x="734" y="390" width="40" height="50" as="geometry" />
        </mxCell>
        <mxCell id="BNw0BIAi_Vv0ncGTf3Xm-16" value="&lt;b&gt;Log File&lt;/b&gt;" style="image;html=1;image=img/lib/clip_art/general/Full_Folder_128x128.png" vertex="1" parent="1">
          <mxGeometry x="573.5" y="510" width="55" height="40" as="geometry" />
        </mxCell>
        <mxCell id="BNw0BIAi_Vv0ncGTf3Xm-17" value="&lt;b&gt;Logrotate&lt;/b&gt;" style="shape=image;html=1;verticalAlign=top;verticalLabelPosition=bottom;labelBackgroundColor=#ffffff;imageAspect=0;aspect=fixed;image=https://cdn1.iconfinder.com/data/icons/unicons-line-vol-3/24/docker-128.png" vertex="1" parent="1">
          <mxGeometry x="727" y="503" width="54" height="54" as="geometry" />
        </mxCell>
        <mxCell id="BNw0BIAi_Vv0ncGTf3Xm-21" value="" style="endArrow=classic;html=1;rounded=0;entryX=0.5;entryY=0;entryDx=0;entryDy=0;" edge="1" parent="1" target="BNw0BIAi_Vv0ncGTf3Xm-16">
          <mxGeometry width="50" height="50" relative="1" as="geometry">
            <mxPoint x="601" y="470" as="sourcePoint" />
            <mxPoint x="450" y="370" as="targetPoint" />
          </mxGeometry>
        </mxCell>
        <mxCell id="BNw0BIAi_Vv0ncGTf3Xm-22" value="" style="endArrow=classic;html=1;rounded=0;" edge="1" parent="1" source="BNw0BIAi_Vv0ncGTf3Xm-17" target="BNw0BIAi_Vv0ncGTf3Xm-16">
          <mxGeometry width="50" height="50" relative="1" as="geometry">
            <mxPoint x="400" y="420" as="sourcePoint" />
            <mxPoint x="450" y="370" as="targetPoint" />
          </mxGeometry>
        </mxCell>
        <mxCell id="BNw0BIAi_Vv0ncGTf3Xm-35" value="5. Rotate file" style="edgeLabel;html=1;align=center;verticalAlign=middle;resizable=0;points=[];" vertex="1" connectable="0" parent="BNw0BIAi_Vv0ncGTf3Xm-22">
          <mxGeometry x="-0.3171" relative="1" as="geometry">
            <mxPoint x="-13" as="offset" />
          </mxGeometry>
        </mxCell>
        <mxCell id="BNw0BIAi_Vv0ncGTf3Xm-23" value="" style="endArrow=classic;html=1;rounded=0;" edge="1" parent="1" source="BNw0BIAi_Vv0ncGTf3Xm-15" target="BNw0BIAi_Vv0ncGTf3Xm-17">
          <mxGeometry width="50" height="50" relative="1" as="geometry">
            <mxPoint x="400" y="420" as="sourcePoint" />
            <mxPoint x="450" y="370" as="targetPoint" />
          </mxGeometry>
        </mxCell>
        <mxCell id="BNw0BIAi_Vv0ncGTf3Xm-34" value="4. Start container" style="edgeLabel;html=1;align=center;verticalAlign=middle;resizable=0;points=[];" vertex="1" connectable="0" parent="BNw0BIAi_Vv0ncGTf3Xm-23">
          <mxGeometry x="0.0159" y="1" relative="1" as="geometry">
            <mxPoint x="-1" y="9" as="offset" />
          </mxGeometry>
        </mxCell>
        <mxCell id="BNw0BIAi_Vv0ncGTf3Xm-24" value="" style="endArrow=classic;html=1;rounded=0;exitX=0.175;exitY=0.96;exitDx=0;exitDy=0;exitPerimeter=0;" edge="1" parent="1" source="BNw0BIAi_Vv0ncGTf3Xm-15" target="BNw0BIAi_Vv0ncGTf3Xm-16">
          <mxGeometry width="50" height="50" relative="1" as="geometry">
            <mxPoint x="400" y="420" as="sourcePoint" />
            <mxPoint x="450" y="370" as="targetPoint" />
          </mxGeometry>
        </mxCell>
        <mxCell id="BNw0BIAi_Vv0ncGTf3Xm-37" value="6. Get new log files" style="edgeLabel;html=1;align=center;verticalAlign=middle;resizable=0;points=[];" vertex="1" connectable="0" parent="BNw0BIAi_Vv0ncGTf3Xm-24">
          <mxGeometry x="0.3186" relative="1" as="geometry">
            <mxPoint x="-4" y="-2" as="offset" />
          </mxGeometry>
        </mxCell>
        <mxCell id="BNw0BIAi_Vv0ncGTf3Xm-26" value="" style="endArrow=classic;html=1;rounded=0;" edge="1" parent="1" source="BNw0BIAi_Vv0ncGTf3Xm-8" target="BNw0BIAi_Vv0ncGTf3Xm-11">
          <mxGeometry width="50" height="50" relative="1" as="geometry">
            <mxPoint x="400" y="420" as="sourcePoint" />
            <mxPoint x="450" y="370" as="targetPoint" />
          </mxGeometry>
        </mxCell>
        <mxCell id="BNw0BIAi_Vv0ncGTf3Xm-27" value="2. Send message" style="edgeLabel;html=1;align=center;verticalAlign=middle;resizable=0;points=[];" vertex="1" connectable="0" parent="BNw0BIAi_Vv0ncGTf3Xm-26">
          <mxGeometry x="0.1786" y="1" relative="1" as="geometry">
            <mxPoint as="offset" />
          </mxGeometry>
        </mxCell>
        <mxCell id="BNw0BIAi_Vv0ncGTf3Xm-28" value="&lt;b&gt;User Front-end&lt;/b&gt;" style="image;points=[];aspect=fixed;html=1;align=center;shadow=0;dashed=0;image=img/lib/allied_telesis/computer_and_terminals/Personal_Computer.svg;" vertex="1" parent="1">
          <mxGeometry x="178.4" width="45.6" height="61.800000000000004" as="geometry" />
        </mxCell>
        <mxCell id="BNw0BIAi_Vv0ncGTf3Xm-29" value="" style="endArrow=classic;html=1;rounded=0;" edge="1" parent="1" source="BNw0BIAi_Vv0ncGTf3Xm-28">
          <mxGeometry width="50" height="50" relative="1" as="geometry">
            <mxPoint x="400" y="420" as="sourcePoint" />
            <mxPoint x="201" y="150" as="targetPoint" />
          </mxGeometry>
        </mxCell>
        <mxCell id="BNw0BIAi_Vv0ncGTf3Xm-30" value="1. Call API" style="edgeLabel;html=1;align=center;verticalAlign=middle;resizable=0;points=[];" vertex="1" connectable="0" parent="BNw0BIAi_Vv0ncGTf3Xm-29">
          <mxGeometry x="-0.0658" y="2" relative="1" as="geometry">
            <mxPoint as="offset" />
          </mxGeometry>
        </mxCell>
        <mxCell id="BNw0BIAi_Vv0ncGTf3Xm-31" value="" style="endArrow=classic;html=1;rounded=0;" edge="1" parent="1" source="BNw0BIAi_Vv0ncGTf3Xm-11">
          <mxGeometry width="50" height="50" relative="1" as="geometry">
            <mxPoint x="400" y="420" as="sourcePoint" />
            <mxPoint x="750" y="390" as="targetPoint" />
            <Array as="points">
              <mxPoint x="420" y="350" />
              <mxPoint x="713" y="350" />
            </Array>
          </mxGeometry>
        </mxCell>
        <mxCell id="BNw0BIAi_Vv0ncGTf3Xm-33" value="3. Send request" style="edgeLabel;html=1;align=center;verticalAlign=middle;resizable=0;points=[];" vertex="1" connectable="0" parent="BNw0BIAi_Vv0ncGTf3Xm-31">
          <mxGeometry x="0.166" relative="1" as="geometry">
            <mxPoint as="offset" />
          </mxGeometry>
        </mxCell>
        <mxCell id="BNw0BIAi_Vv0ncGTf3Xm-36" value="" style="endArrow=classic;html=1;rounded=0;exitX=0.35;exitY=0.02;exitDx=0;exitDy=0;exitPerimeter=0;" edge="1" parent="1" source="BNw0BIAi_Vv0ncGTf3Xm-15">
          <mxGeometry width="50" height="50" relative="1" as="geometry">
            <mxPoint x="748" y="380" as="sourcePoint" />
            <mxPoint x="748" y="220" as="targetPoint" />
          </mxGeometry>
        </mxCell>
        <mxCell id="BNw0BIAi_Vv0ncGTf3Xm-38" value="7. Upload new log files to S3 Storage" style="edgeLabel;html=1;align=center;verticalAlign=middle;resizable=0;points=[];" vertex="1" connectable="0" parent="BNw0BIAi_Vv0ncGTf3Xm-36">
          <mxGeometry x="0.3099" y="-2" relative="1" as="geometry">
            <mxPoint as="offset" />
          </mxGeometry>
        </mxCell>
        <mxCell id="BNw0BIAi_Vv0ncGTf3Xm-39" value="" style="endArrow=classic;html=1;rounded=0;entryX=0.9;entryY=0.771;entryDx=0;entryDy=0;entryPerimeter=0;exitX=0.5;exitY=0.045;exitDx=0;exitDy=0;exitPerimeter=0;" edge="1" parent="1" source="BNw0BIAi_Vv0ncGTf3Xm-15" target="BNw0BIAi_Vv0ncGTf3Xm-8">
          <mxGeometry width="50" height="50" relative="1" as="geometry">
            <mxPoint x="660" y="320" as="sourcePoint" />
            <mxPoint x="330" y="170" as="targetPoint" />
            <Array as="points">
              <mxPoint x="610" y="300" />
              <mxPoint x="520" y="300" />
              <mxPoint x="280" y="300" />
            </Array>
          </mxGeometry>
        </mxCell>
        <mxCell id="BNw0BIAi_Vv0ncGTf3Xm-40" value="8. Store new log files to Webservice" style="edgeLabel;html=1;align=center;verticalAlign=middle;resizable=0;points=[];" vertex="1" connectable="0" parent="BNw0BIAi_Vv0ncGTf3Xm-39">
          <mxGeometry x="0.3759" y="-1" relative="1" as="geometry">
            <mxPoint x="86" y="1" as="offset" />
          </mxGeometry>
        </mxCell>
        <mxCell id="BNw0BIAi_Vv0ncGTf3Xm-41" value="" style="ellipse;whiteSpace=wrap;html=1;aspect=fixed;" vertex="1" parent="1">
          <mxGeometry x="709" y="110" width="110" height="110" as="geometry" />
        </mxCell>
      </root>
    </mxGraphModel>
  </diagram>
</mxfile>
